<?xml version="1.0" encoding="utf-8"?>
<!-- Generator: Adobe Illustrator 18.1.1, SVG Export Plug-In . SVG Version: 6.00 Build 0)  -->
<!DOCTYPE svg PUBLIC "-//W3C//DTD SVG 1.1//EN" "http://www.w3.org/Graphics/SVG/1.1/DTD/svg11.dtd">
<svg version="1.1" id="Layer_1" xmlns="http://www.w3.org/2000/svg" xmlns:xlink="http://www.w3.org/1999/xlink" x="0px" y="0px"
	 width="540px" height="374.7px" viewBox="0 0 540 374.7" enable-background="new 0 0 540 374.7" xml:space="preserve">
<g>
	<g opacity="0.1">
		<polygon fill="#006D5E" points="87.6,150.2 66.2,113 87.6,75.9 130.5,75.9 152,113 130.5,150.2 		"/>
		<path fill="#FFFFFF" d="M131.4,151.8H86.7L64.4,113l22.4-38.7h44.7l22.4,38.7L131.4,151.8z M88.5,148.7h41.1l20.6-35.6l-20.6-35.6
			H88.5L67.9,113L88.5,148.7z"/>
	</g>
	<g opacity="0.1">
		<polygon fill="#006D5E" points="23.2,187.4 1.8,150.2 23.2,113 66.2,113 87.6,150.2 66.2,187.4 		"/>
		<path fill="#FFFFFF" d="M67.1,188.9H22.4L0,150.2l22.4-38.7h44.7l22.4,38.7L67.1,188.9z M24.1,185.8h41.1l20.6-35.6l-20.6-35.6
			H24.1L3.6,150.2L24.1,185.8z"/>
	</g>
	<g>
		<polygon fill="#006D5E" points="87.6,224.5 66.2,187.4 87.6,150.2 130.5,150.2 152,187.4 130.5,224.5 		"/>
		<path fill="#FFFFFF" d="M131.4,226.1H86.7l-22.4-38.7l22.4-38.7h44.7l22.4,38.7L131.4,226.1z M88.5,223h41.1l20.6-35.6l-20.6-35.6
			H88.5l-20.6,35.6L88.5,223z"/>
	</g>
	<g opacity="0.1">
		<polygon fill="#006D5E" points="152,113 130.5,75.9 152,38.7 194.9,38.7 216.4,75.9 194.9,113 		"/>
		<path fill="#FFFFFF" d="M195.8,114.6h-44.7l-22.4-38.7l22.4-38.7h44.7l22.4,38.7L195.8,114.6z M152.9,111.5H194l20.6-35.6
			L194,40.3h-41.1l-20.6,35.6L152.9,111.5z"/>
	</g>
	<g opacity="0.1">
		<polygon fill="#006D5E" points="152,187.4 130.5,150.2 152,113 194.9,113 216.4,150.2 194.9,187.4 		"/>
		<path fill="#FFFFFF" d="M195.8,188.9h-44.7l-22.4-38.7l22.4-38.7h44.7l22.4,38.7L195.8,188.9z M152.9,185.8H194l20.6-35.6
			L194,114.6h-41.1l-20.6,35.6L152.9,185.8z"/>
	</g>
	<g opacity="0.1">
		<polygon fill="#006D5E" points="216.4,150.2 194.9,113 216.4,75.9 259.3,75.9 280.7,113 259.3,150.2 		"/>
		<path fill="#FFFFFF" d="M260.2,151.8h-44.7L193.1,113l22.4-38.7h44.7l22.4,38.7L260.2,151.8z M217.3,148.7h41.1l20.6-35.6
			l-20.6-35.6h-41.1L196.7,113L217.3,148.7z"/>
	</g>
	<g>
		<polygon fill="#006D5E" points="216.4,224.5 194.9,187.4 216.4,150.2 259.3,150.2 280.7,187.4 259.3,224.5 		"/>
		<path fill="#FFFFFF" d="M260.2,226.1h-44.7l-22.4-38.7l22.4-38.7h44.7l22.4,38.7L260.2,226.1z M217.3,223h41.1l20.6-35.6
			l-20.6-35.6h-41.1l-20.6,35.6L217.3,223z"/>
	</g>
	<g opacity="0.1">
		<polygon fill="#006D5E" points="280.7,113 259.3,75.9 280.7,38.7 323.6,38.7 345.1,75.9 323.6,113 		"/>
		<path fill="#FFFFFF" d="M324.5,114.6h-44.7l-22.4-38.7l22.4-38.7h44.7l22.4,38.7L324.5,114.6z M281.6,111.5h41.1l20.6-35.6
			l-20.6-35.6h-41.1l-20.6,35.6L281.6,111.5z"/>
	</g>
	<g opacity="0.1">
		<polygon fill="#006D5E" points="280.7,187.4 259.3,150.2 280.7,113 323.6,113 345.1,150.2 323.6,187.4 		"/>
		<path fill="#FFFFFF" d="M324.5,188.9h-44.7l-22.4-38.7l22.4-38.7h44.7l22.4,38.7L324.5,188.9z M281.6,185.8h41.1l20.6-35.6
			l-20.6-35.6h-41.1l-20.6,35.6L281.6,185.8z"/>
	</g>
	<g opacity="0.1">
		<polygon fill="#006D5E" points="345.1,75.9 323.6,38.7 345.1,1.5 388,1.5 409.5,38.7 388,75.9 		"/>
		<path fill="#FFFFFF" d="M388.9,77.4h-44.7l-22.4-38.7L344.2,0h44.7l22.4,38.7L388.9,77.4z M346,74.3h41.1l20.6-35.6L387.1,3.1H346
			l-20.6,35.6L346,74.3z"/>
	</g>
	<g opacity="0.1">
		<polygon fill="#006D5E" points="345.1,150.2 323.6,113 345.1,75.9 388,75.9 409.5,113 388,150.2 		"/>
		<path fill="#FFFFFF" d="M388.9,151.8h-44.7L321.9,113l22.4-38.7h44.7l22.4,38.7L388.9,151.8z M346,148.7h41.1l20.6-35.6
			l-20.6-35.6H346L325.4,113L346,148.7z"/>
	</g>
	<g opacity="0.1">
		<polygon fill="#006D5E" points="345.1,224.5 323.6,187.4 345.1,150.2 388,150.2 409.5,187.4 388,224.5 		"/>
		<path fill="#FFFFFF" d="M388.9,226.1h-44.7l-22.4-38.7l22.4-38.7h44.7l22.4,38.7L388.9,226.1z M346,223h41.1l20.6-35.6l-20.6-35.6
			H346l-20.6,35.6L346,223z"/>
	</g>
	<g>
		<polygon fill="#006D5E" points="23.2,261.7 1.8,224.5 23.2,187.4 66.2,187.4 87.6,224.5 66.2,261.7 		"/>
		<path fill="#FFFFFF" d="M67.1,263.2H22.4L0,224.5l22.4-38.7h44.7l22.4,38.7L67.1,263.2z M24.1,260.2h41.1l20.6-35.6l-20.6-35.6
			H24.1L3.6,224.5L24.1,260.2z"/>
	</g>
	<g opacity="0.1">
		<polygon fill="#006D5E" points="87.6,298.9 66.2,261.7 87.6,224.5 130.5,224.5 152,261.7 130.5,298.9 		"/>
		<path fill="#FFFFFF" d="M131.4,300.4H86.7l-22.4-38.7L86.7,223h44.7l22.4,38.7L131.4,300.4z M88.5,297.3h41.1l20.6-35.6
			l-20.6-35.6H88.5l-20.6,35.6L88.5,297.3z"/>
	</g>
	<g opacity="0.1">
		<polygon fill="#006D5E" points="152,336 130.5,298.9 152,261.7 194.9,261.7 216.4,298.9 194.9,336 		"/>
		<path fill="#FFFFFF" d="M195.8,337.6h-44.7l-22.4-38.7l22.4-38.7h44.7l22.4,38.7L195.8,337.6z M152.9,334.5H194l20.6-35.6
			L194,263.2h-41.1l-20.6,35.6L152.9,334.5z"/>
	</g>
	<g>
		<polygon fill="#006D5E" points="152,261.7 130.5,224.5 152,187.4 194.9,187.4 216.4,224.5 194.9,261.7 		"/>
		<path fill="#FFFFFF" d="M195.8,263.2h-44.7l-22.4-38.7l22.4-38.7h44.7l22.4,38.7L195.8,263.2z M152.9,260.2H194l20.6-35.6
			L194,188.9h-41.1l-20.6,35.6L152.9,260.2z"/>
	</g>
	<g opacity="0.1">
		<polygon fill="#006D5E" points="216.4,373.2 194.9,336 216.4,298.9 259.3,298.9 280.7,336 259.3,373.2 		"/>
		<path fill="#FFFFFF" d="M260.2,374.7h-44.7L193.1,336l22.4-38.7h44.7l22.4,38.7L260.2,374.7z M217.3,371.6h41.1l20.6-35.6
			l-20.6-35.6h-41.1L196.7,336L217.3,371.6z"/>
	</g>
	<g opacity="0.1">
		<polygon fill="#006D5E" points="216.4,298.9 194.9,261.7 216.4,224.5 259.3,224.5 280.7,261.7 259.3,298.9 		"/>
		<path fill="#FFFFFF" d="M260.2,300.4h-44.7l-22.4-38.7l22.4-38.7h44.7l22.4,38.7L260.2,300.4z M217.3,297.3h41.1l20.6-35.6
			l-20.6-35.6h-41.1l-20.6,35.6L217.3,297.3z"/>
	</g>
	<g opacity="0.1">
		<polygon fill="#006D5E" points="280.7,336 259.3,298.9 280.7,261.7 323.6,261.7 345.1,298.9 323.6,336 		"/>
		<path fill="#FFFFFF" d="M324.5,337.6h-44.7l-22.4-38.7l22.4-38.7h44.7l22.4,38.7L324.5,337.6z M281.6,334.5h41.1l20.6-35.6
			l-20.6-35.6h-41.1l-20.6,35.6L281.6,334.5z"/>
	</g>
	<g opacity="0.1">
		<polygon fill="#006D5E" points="280.7,261.7 259.3,224.5 280.7,187.4 323.6,187.4 345.1,224.5 323.6,261.7 		"/>
		<path fill="#FFFFFF" d="M324.5,263.2h-44.7l-22.4-38.7l22.4-38.7h44.7l22.4,38.7L324.5,263.2z M281.6,260.2h41.1l20.6-35.6
			l-20.6-35.6h-41.1l-20.6,35.6L281.6,260.2z"/>
	</g>
	<g opacity="0.1">
		<polygon fill="#006D5E" points="345.1,373.2 323.6,336 345.1,298.9 388,298.9 409.5,336 388,373.2 		"/>
		<path fill="#FFFFFF" d="M388.9,374.7h-44.7L321.9,336l22.4-38.7h44.7l22.4,38.7L388.9,374.7z M346,371.6h41.1l20.6-35.6
			l-20.6-35.6H346L325.4,336L346,371.6z"/>
	</g>
	<g opacity="0.1">
		<polygon fill="#006D5E" points="345.1,298.9 323.6,261.7 345.1,224.5 388,224.5 409.5,261.7 388,298.9 		"/>
		<path fill="#FFFFFF" d="M388.9,300.4h-44.7l-22.4-38.7l22.4-38.7h44.7l22.4,38.7L388.9,300.4z M346,297.3h41.1l20.6-35.6
			l-20.6-35.6H346l-20.6,35.6L346,297.3z"/>
	</g>
	<g opacity="0.1">
		<polygon fill="#006D5E" points="409.5,113 388,75.9 409.5,38.7 452.4,38.7 473.8,75.9 452.4,113 		"/>
		<path fill="#FFFFFF" d="M453.3,114.6h-44.7l-22.4-38.7l22.4-38.7h44.7l22.4,38.7L453.3,114.6z M410.4,111.5h41.1l20.6-35.6
			l-20.6-35.6h-41.1l-20.6,35.6L410.4,111.5z"/>
	</g>
	<g opacity="0.1">
		<polygon fill="#006D5E" points="409.5,187.4 388,150.2 409.5,113 452.4,113 473.8,150.2 452.4,187.4 		"/>
		<path fill="#FFFFFF" d="M453.3,188.9h-44.7l-22.4-38.7l22.4-38.7h44.7l22.4,38.7L453.3,188.9z M410.4,185.8h41.1l20.6-35.6
			l-20.6-35.6h-41.1l-20.6,35.6L410.4,185.8z"/>
	</g>
	<g opacity="0.1">
		<polygon fill="#006D5E" points="473.8,224.5 452.4,187.4 473.8,150.2 516.8,150.2 538.2,187.4 516.8,224.5 		"/>
		<path fill="#FFFFFF" d="M517.6,226.1h-44.7l-22.4-38.7l22.4-38.7h44.7l22.4,38.7L517.6,226.1z M474.7,223h41.1l20.6-35.6
			l-20.6-35.6h-41.1l-20.6,35.6L474.7,223z"/>
	</g>
	<g opacity="0.1">
		<polygon fill="#006D5E" points="409.5,336 388,298.9 409.5,261.7 452.4,261.7 473.8,298.9 452.4,336 		"/>
		<path fill="#FFFFFF" d="M453.3,337.6h-44.7l-22.4-38.7l22.4-38.7h44.7l22.4,38.7L453.3,337.6z M410.4,334.5h41.1l20.6-35.6
			l-20.6-35.6h-41.1l-20.6,35.6L410.4,334.5z"/>
	</g>
	<g opacity="0.1">
		<polygon fill="#006D5E" points="409.5,261.7 388,224.5 409.5,187.4 452.4,187.4 473.8,224.5 452.4,261.7 		"/>
		<path fill="#FFFFFF" d="M453.3,263.2h-44.7l-22.4-38.7l22.4-38.7h44.7l22.4,38.7L453.3,263.2z M410.4,260.2h41.1l20.6-35.6
			l-20.6-35.6h-41.1l-20.6,35.6L410.4,260.2z"/>
	</g>
	<g opacity="0.1">
		<polygon fill="#006D5E" points="473.8,298.9 452.4,261.7 473.8,224.5 516.8,224.5 538.2,261.7 516.8,298.9 		"/>
		<path fill="#FFFFFF" d="M517.6,300.4h-44.7l-22.4-38.7l22.4-38.7h44.7l22.4,38.7L517.6,300.4z M474.7,297.3h41.1l20.6-35.6
			l-20.6-35.6h-41.1l-20.6,35.6L474.7,297.3z"/>
	</g>
	<g>
		<path fill="#FFFFFF" d="M18,220.4h1.3v4.3c0,1,0.1,2.1,1.7,2.1s1.7-1.1,1.7-2.1v-4.3h1.3v4.7c0,1.9-1.2,2.8-3,2.8
			c-1.8,0-3-0.9-3-2.8V220.4z"/>
		<path fill="#FFFFFF" d="M25.2,222.5h1.1v0.8l0,0c0.4-0.6,1-0.9,1.7-0.9c1.2,0,1.9,0.6,1.9,1.8v3.7h-1.2v-3.4c0-0.8-0.3-1.2-1-1.2
			c-0.8,0-1.3,0.6-1.3,1.4v3.1h-1.2V222.5z"/>
		<path fill="#FFFFFF" d="M36,227.8h-1.1v-0.7h0c-0.3,0.6-1,0.9-1.7,0.9c-1.7,0-2.5-1.2-2.5-2.8c0-1.9,1.1-2.8,2.3-2.8
			c0.7,0,1.4,0.2,1.8,0.8h0v-2.7H36V227.8z M33.3,227c1,0,1.5-1,1.5-1.9c0-1.2-0.6-1.9-1.5-1.9c-1.1,0-1.5,1-1.5,1.9
			C31.9,226.1,32.3,227,33.3,227z"/>
		<path fill="#FFFFFF" d="M37.9,225.4c0,0.8,0.5,1.6,1.4,1.6c0.7,0,1.1-0.3,1.3-0.9h1.1c-0.2,1.2-1.3,1.8-2.4,1.8
			c-1.7,0-2.6-1.2-2.6-2.8c0-1.5,1-2.8,2.6-2.8c1.7,0,2.7,1.5,2.5,3.1H37.9z M40.7,224.7c-0.1-0.7-0.5-1.4-1.3-1.4
			c-0.8,0-1.4,0.6-1.4,1.4H40.7z"/>
		<path fill="#FFFFFF" d="M42.7,222.5h1.1v1h0c0.1-0.6,0.8-1.2,1.6-1.2c0.3,0,0.3,0,0.4,0v1.1c-0.2,0-0.3-0.1-0.5-0.1
			c-0.8,0-1.4,0.6-1.4,1.8v2.5h-1.2V222.5z"/>
		<path fill="#FFFFFF" d="M47.2,226.1c0.1,0.7,0.6,0.9,1.2,0.9c0.5,0,1.2-0.1,1.2-0.7c0-0.6-0.9-0.7-1.7-0.9
			c-0.9-0.2-1.7-0.5-1.7-1.6c0-1.2,1.3-1.5,2.2-1.5c1.1,0,2.1,0.4,2.2,1.6h-1.2c-0.1-0.6-0.6-0.7-1.1-0.7c-0.3,0-1,0.1-1,0.5
			c0,0.6,0.9,0.7,1.7,0.9c0.9,0.2,1.7,0.5,1.7,1.6c0,1.3-1.3,1.7-2.4,1.7c-1.4,0-2.3-0.6-2.4-1.9H47.2z"/>
		<path fill="#FFFFFF" d="M51,222.5h0.9v-1.6h1.2v1.6h1.1v0.9h-1.1v2.8c0,0.5,0,0.7,0.6,0.7c0.2,0,0.3,0,0.5,0v0.9
			c-0.3,0-0.5,0.1-0.8,0.1c-1.2,0-1.4-0.5-1.5-1.4v-3.1H51V222.5z"/>
		<path fill="#FFFFFF" d="M59.4,226.6c0,0.3,0.1,0.4,0.3,0.4h0.1c0.1,0,0.1,0,0.2,0v0.8c-0.2,0.1-0.5,0.1-0.7,0.1
			c-0.5,0-0.8-0.2-0.9-0.6c-0.5,0.5-1.2,0.6-1.8,0.6c-1,0-1.8-0.5-1.8-1.6c0-1.3,1.1-1.5,2.1-1.7c0.9-0.2,1.6-0.1,1.6-0.8
			c0-0.6-0.6-0.7-1.1-0.7c-0.7,0-1.1,0.3-1.2,0.8h-1.2c0.1-1.4,1.2-1.8,2.4-1.8c1,0,2.1,0.4,2.1,1.5V226.6z M58.2,225.1
			c-0.4,0.2-0.9,0.2-1.4,0.3c-0.5,0.1-1,0.3-1,0.9c0,0.5,0.7,0.7,1.1,0.7c0.5,0,1.3-0.3,1.3-1V225.1z"/>
		<path fill="#FFFFFF" d="M60.7,222.5h1.1v0.8l0,0c0.4-0.6,1-0.9,1.7-0.9c1.2,0,1.9,0.6,1.9,1.8v3.7h-1.2v-3.4c0-0.8-0.3-1.2-1-1.2
			c-0.8,0-1.3,0.6-1.3,1.4v3.1h-1.2V222.5z"/>
		<path fill="#FFFFFF" d="M71.4,227.8h-1.1v-0.7h0c-0.3,0.6-1,0.9-1.7,0.9c-1.7,0-2.5-1.2-2.5-2.8c0-1.9,1.1-2.8,2.3-2.8
			c0.7,0,1.4,0.2,1.8,0.8h0v-2.7h1.2V227.8z M68.8,227c1,0,1.5-1,1.5-1.9c0-1.2-0.6-1.9-1.5-1.9c-1.1,0-1.5,1-1.5,1.9
			C67.3,226.1,67.8,227,68.8,227z"/>
	</g>
	<g>
		<path fill="#FFFFFF" d="M91.9,183.3h5.3v1.1h-4v1.9h3.7v1.1h-3.7v2.2h4.1v1.1h-5.4V183.3z"/>
		<path fill="#FFFFFF" d="M100,187.8l-1.8-2.5h1.4l1.1,1.6l1.2-1.6h1.4l-1.8,2.5l2,2.9h-1.4l-1.4-2l-1.3,2H98L100,187.8z"/>
		<path fill="#FFFFFF" d="M103.9,185.3h1.1v0.7h0c0.3-0.6,1-0.9,1.7-0.9c1.7,0,2.5,1.3,2.5,2.8c0,1.4-0.7,2.8-2.3,2.8
			c-0.7,0-1.4-0.2-1.8-0.8h0v2.7h-1.2V185.3z M106.6,186.1c-1,0-1.5,0.7-1.5,1.9c0,1.1,0.5,1.9,1.5,1.9c1.1,0,1.5-0.9,1.5-1.9
			C108,187,107.5,186.1,106.6,186.1z"/>
		<path fill="#FFFFFF" d="M110,183.3h1.2v7.4H110V183.3z"/>
		<path fill="#FFFFFF" d="M112,188c0-1.6,1-2.8,2.7-2.8c1.7,0,2.7,1.2,2.7,2.8c0,1.6-1,2.8-2.7,2.8C113,190.8,112,189.6,112,188z
			 M116.2,188c0-0.9-0.5-1.9-1.5-1.9c-1.1,0-1.5,1-1.5,1.9c0,0.9,0.5,1.9,1.5,1.9C115.8,189.9,116.2,188.9,116.2,188z"/>
		<path fill="#FFFFFF" d="M118.2,185.3h1.1v1h0c0.1-0.6,0.8-1.2,1.6-1.2c0.3,0,0.3,0,0.4,0v1.1c-0.2,0-0.3-0.1-0.5-0.1
			c-0.8,0-1.4,0.6-1.4,1.8v2.5h-1.2V185.3z"/>
		<path fill="#FFFFFF" d="M122.6,188.3c0,0.8,0.5,1.6,1.4,1.6c0.7,0,1.1-0.3,1.3-0.9h1.1c-0.2,1.2-1.3,1.8-2.4,1.8
			c-1.7,0-2.6-1.2-2.6-2.8c0-1.5,1-2.8,2.6-2.8c1.7,0,2.7,1.5,2.5,3.1H122.6z M125.3,187.5c-0.1-0.7-0.5-1.4-1.3-1.4
			c-0.8,0-1.4,0.6-1.4,1.4H125.3z"/>
	</g>
	<g>
		<path fill="#FFFFFF" d="M151.3,220.4h3.3c2.1,0,2.5,1.4,2.5,2.3c0,0.9-0.4,2.3-2.5,2.3h-2v2.8h-1.3V220.4z M152.6,223.9h1.9
			c0.6,0,1.3-0.3,1.3-1.2c0-1-0.6-1.2-1.3-1.2h-1.9V223.9z"/>
		<path fill="#FFFFFF" d="M157.8,222.5h1.1v1h0c0.1-0.6,0.8-1.2,1.6-1.2c0.3,0,0.3,0,0.4,0v1.1c-0.2,0-0.3-0.1-0.5-0.1
			c-0.8,0-1.4,0.6-1.4,1.8v2.5h-1.2V222.5z"/>
		<path fill="#FFFFFF" d="M161,225.1c0-1.6,1-2.8,2.7-2.8c1.7,0,2.7,1.2,2.7,2.8c0,1.6-1,2.8-2.7,2.8C162,228,161,226.8,161,225.1z
			 M165.2,225.1c0-0.9-0.5-1.9-1.5-1.9c-1.1,0-1.5,1-1.5,1.9c0,0.9,0.5,1.9,1.5,1.9C164.8,227,165.2,226.1,165.2,225.1z"/>
		<path fill="#FFFFFF" d="M166.6,222.5h0.9v-1.6h1.2v1.6h1.1v0.9h-1.1v2.8c0,0.5,0,0.7,0.6,0.7c0.2,0,0.3,0,0.5,0v0.9
			c-0.3,0-0.5,0.1-0.8,0.1c-1.2,0-1.4-0.5-1.5-1.4v-3.1h-0.9V222.5z"/>
		<path fill="#FFFFFF" d="M170,225.1c0-1.6,1-2.8,2.7-2.8c1.7,0,2.7,1.2,2.7,2.8c0,1.6-1,2.8-2.7,2.8C171,228,170,226.8,170,225.1z
			 M174.2,225.1c0-0.9-0.5-1.9-1.5-1.9c-1.1,0-1.5,1-1.5,1.9c0,0.9,0.5,1.9,1.5,1.9C173.8,227,174.2,226.1,174.2,225.1z"/>
		<path fill="#FFFFFF" d="M175.6,222.5h0.9v-1.6h1.2v1.6h1.1v0.9h-1.1v2.8c0,0.5,0,0.7,0.6,0.7c0.2,0,0.3,0,0.5,0v0.9
			c-0.3,0-0.5,0.1-0.8,0.1c-1.2,0-1.4-0.5-1.5-1.4v-3.1h-0.9V222.5z"/>
		<path fill="#FFFFFF" d="M179.1,222.5h1.3l1.4,4h0l1.4-4h1.2l-2.1,5.6c-0.4,1-0.6,1.8-1.9,1.8c-0.3,0-0.5,0-0.8-0.1v-1
			c0.2,0,0.4,0.1,0.6,0.1c0.5,0,0.7-0.3,0.8-0.7l0.1-0.4L179.1,222.5z"/>
		<path fill="#FFFFFF" d="M184.9,222.5h1.1v0.7h0c0.3-0.6,1-0.9,1.7-0.9c1.7,0,2.5,1.3,2.5,2.8c0,1.4-0.7,2.8-2.3,2.8
			c-0.7,0-1.4-0.2-1.8-0.8h0v2.7h-1.2V222.5z M187.5,223.3c-1,0-1.5,0.7-1.5,1.9c0,1.1,0.5,1.9,1.5,1.9c1.1,0,1.5-0.9,1.5-1.9
			C189,224.2,188.5,223.3,187.5,223.3z"/>
		<path fill="#FFFFFF" d="M192,225.4c0,0.8,0.5,1.6,1.4,1.6c0.7,0,1.1-0.3,1.3-0.9h1.1c-0.2,1.2-1.3,1.8-2.4,1.8
			c-1.7,0-2.6-1.2-2.6-2.8c0-1.5,1-2.8,2.6-2.8c1.7,0,2.7,1.5,2.5,3.1H192z M194.7,224.7c-0.1-0.7-0.5-1.4-1.3-1.4
			c-0.8,0-1.4,0.6-1.4,1.4H194.7z"/>
	</g>
	<g>
		<path fill="#FFFFFF" d="M218.7,183.3h5.3v1.1h-4v1.9h3.7v1.1H220v2.2h4.1v1.1h-5.4V183.3z"/>
		<path fill="#FFFFFF" d="M224.4,185.3h1.3l1.4,4.1h0l1.3-4.1h1.2l-1.9,5.3h-1.3L224.4,185.3z"/>
		<path fill="#FFFFFF" d="M234.4,189.5c0,0.3,0.1,0.4,0.3,0.4h0.1c0.1,0,0.1,0,0.2,0v0.8c-0.2,0.1-0.5,0.1-0.7,0.1
			c-0.5,0-0.8-0.2-0.9-0.6c-0.5,0.5-1.2,0.6-1.8,0.6c-1,0-1.8-0.5-1.8-1.6c0-1.3,1.1-1.5,2.1-1.7c0.9-0.2,1.6-0.1,1.6-0.8
			c0-0.6-0.6-0.7-1.1-0.7c-0.7,0-1.1,0.3-1.2,0.8h-1.2c0.1-1.4,1.2-1.8,2.4-1.8c1,0,2.1,0.4,2.1,1.5V189.5z M233.2,188
			c-0.4,0.2-0.9,0.2-1.4,0.3c-0.5,0.1-1,0.3-1,0.9c0,0.5,0.7,0.7,1.1,0.7c0.5,0,1.3-0.3,1.3-1V188z"/>
		<path fill="#FFFFFF" d="M235.7,183.3h1.2v7.4h-1.2V183.3z"/>
		<path fill="#FFFFFF" d="M242.6,190.6h-1.2v-0.7h0c-0.3,0.5-0.9,0.9-1.5,0.9c-1.4,0-2-0.7-2-2.1v-3.4h1.2v3.3c0,0.9,0.4,1.3,1,1.3
			c1,0,1.3-0.6,1.3-1.5v-3.1h1.2V190.6z"/>
		<path fill="#FFFFFF" d="M248.1,189.5c0,0.3,0.1,0.4,0.3,0.4h0.1c0.1,0,0.1,0,0.2,0v0.8c-0.2,0.1-0.5,0.1-0.7,0.1
			c-0.5,0-0.8-0.2-0.9-0.6c-0.5,0.5-1.2,0.6-1.8,0.6c-1,0-1.8-0.5-1.8-1.6c0-1.3,1.1-1.5,2.1-1.7c0.9-0.2,1.6-0.1,1.6-0.8
			c0-0.6-0.6-0.7-1.1-0.7c-0.7,0-1.1,0.3-1.2,0.8h-1.2c0.1-1.4,1.2-1.8,2.4-1.8c1,0,2.1,0.4,2.1,1.5V189.5z M246.9,188
			c-0.4,0.2-0.9,0.2-1.4,0.3c-0.5,0.1-1,0.3-1,0.9c0,0.5,0.7,0.7,1.1,0.7c0.5,0,1.3-0.3,1.3-1V188z"/>
		<path fill="#FFFFFF" d="M248.8,185.3h0.9v-1.6h1.2v1.6h1.1v0.9h-1.1v2.8c0,0.5,0,0.7,0.6,0.7c0.2,0,0.3,0,0.5,0v0.9
			c-0.3,0-0.5,0.1-0.8,0.1c-1.2,0-1.4-0.5-1.5-1.4v-3.1h-0.9V185.3z"/>
		<path fill="#FFFFFF" d="M253.4,188.3c0,0.8,0.5,1.6,1.4,1.6c0.7,0,1.1-0.3,1.3-0.9h1.1c-0.2,1.2-1.3,1.8-2.4,1.8
			c-1.7,0-2.6-1.2-2.6-2.8c0-1.5,1-2.8,2.6-2.8c1.7,0,2.7,1.5,2.5,3.1H253.4z M256.1,187.5c-0.1-0.7-0.5-1.4-1.3-1.4
			c-0.8,0-1.4,0.6-1.4,1.4H256.1z"/>
	</g>
</g>
</svg>
