<svg xmlns="http://www.w3.org/2000/svg" width="700" height="374.7" enable-background="new 0 0 540 374.7"><g opacity=".1"><path fill="#006D5E" d="M87.6 150.2l-21.4-37.2 21.4-37.1h42.9l21.5 37.1-21.5 37.2z"/><path fill="#fff" d="M131.4 151.8h-44.7l-22.3-38.8 22.4-38.7h44.7l22.4 38.7-22.5 38.8zm-42.9-3.1h41.1l20.6-35.6-20.6-35.6h-41.1l-20.6 35.5 20.6 35.7z"/></g><g opacity=".1"><path fill="#006D5E" d="M23.2 187.4l-21.4-37.2 21.4-37.2h43l21.4 37.2-21.4 37.2z"/><path fill="#fff" d="M67.1 188.9h-44.7l-22.4-38.7 22.4-38.7h44.7l22.4 38.7-22.4 38.7zm-43-3.1h41.1l20.6-35.6-20.6-35.6h-41.1l-20.5 35.6 20.5 35.6z"/></g><path fill="#006D5E" d="M87.6 224.5l-21.4-37.1 21.4-37.2h42.9l21.5 37.2-21.5 37.1z"/><path fill="#fff" d="M131.4 226.1h-44.7l-22.4-38.7 22.4-38.7h44.7l22.4 38.7-22.4 38.7zm-42.9-3.1h41.1l20.6-35.6-20.6-35.6h-41.1l-20.6 35.6 20.6 35.6z"/><g opacity=".1"><path fill="#006D5E" d="M152 113l-21.5-37.1 21.5-37.2h42.9l21.5 37.2-21.5 37.1z"/><path fill="#fff" d="M195.8 114.6h-44.7l-22.4-38.7 22.4-38.7h44.7l22.4 38.7-22.4 38.7zm-42.9-3.1h41.1l20.6-35.6-20.6-35.6h-41.1l-20.6 35.6 20.6 35.6z"/></g><g opacity=".1"><path fill="#006D5E" d="M152 187.4l-21.5-37.2 21.5-37.2h42.9l21.5 37.2-21.5 37.2z"/><path fill="#fff" d="M195.8 188.9h-44.7l-22.4-38.7 22.4-38.7h44.7l22.4 38.7-22.4 38.7zm-42.9-3.1h41.1l20.6-35.6-20.6-35.6h-41.1l-20.6 35.6 20.6 35.6z"/></g><g opacity=".1"><path fill="#006D5E" d="M216.4 150.2l-21.5-37.2 21.5-37.1h42.9l21.4 37.1-21.4 37.2z"/><path fill="#fff" d="M260.2 151.8h-44.7l-22.4-38.8 22.4-38.7h44.7l22.4 38.7-22.4 38.8zm-42.9-3.1h41.1l20.6-35.6-20.6-35.6h-41.1l-20.6 35.5 20.6 35.7z"/></g><path fill="#006D5E" d="M216.4 224.5l-21.5-37.1 21.5-37.2h42.9l21.4 37.2-21.4 37.1z"/><path fill="#fff" d="M260.2 226.1h-44.7l-22.4-38.7 22.4-38.7h44.7l22.4 38.7-22.4 38.7zm-42.9-3.1h41.1l20.6-35.6-20.6-35.6h-41.1l-20.6 35.6 20.6 35.6z"/><g opacity=".1"><path fill="#006D5E" d="M280.7 113l-21.4-37.1 21.4-37.2h42.9l21.5 37.2-21.5 37.1z"/><path fill="#fff" d="M324.5 114.6h-44.7l-22.4-38.7 22.4-38.7h44.7l22.4 38.7-22.4 38.7zm-42.9-3.1h41.1l20.6-35.6-20.6-35.6h-41.1l-20.6 35.6 20.6 35.6z"/></g><g opacity=".1"><path fill="#006D5E" d="M280.7 187.4l-21.4-37.2 21.4-37.2h42.9l21.5 37.2-21.5 37.2z"/><path fill="#fff" d="M324.5 188.9h-44.7l-22.4-38.7 22.4-38.7h44.7l22.4 38.7-22.4 38.7zm-42.9-3.1h41.1l20.6-35.6-20.6-35.6h-41.1l-20.6 35.6 20.6 35.6z"/></g><g opacity=".1"><path fill="#006D5E" d="M345.1 75.9l-21.5-37.2 21.5-37.2h42.9l21.5 37.2-21.5 37.2z"/><path fill="#fff" d="M388.9 77.4h-44.7l-22.4-38.7 22.4-38.7h44.7l22.4 38.7-22.4 38.7zm-42.9-3.1h41.1l20.6-35.6-20.6-35.6h-41.1l-20.6 35.6 20.6 35.6z"/></g><g opacity=".1"><path fill="#006D5E" d="M345.1 150.2l-21.5-37.2 21.5-37.1h42.9l21.5 37.1-21.5 37.2z"/><path fill="#fff" d="M388.9 151.8h-44.7l-22.3-38.8 22.4-38.7h44.7l22.4 38.7-22.5 38.8zm-42.9-3.1h41.1l20.6-35.6-20.6-35.6h-41.1l-20.6 35.5 20.6 35.7z"/></g><g opacity=".1"><path fill="#006D5E" d="M345.1 224.5l-21.5-37.1 21.5-37.2h42.9l21.5 37.2-21.5 37.1z"/><path fill="#fff" d="M388.9 226.1h-44.7l-22.4-38.7 22.4-38.7h44.7l22.4 38.7-22.4 38.7zm-42.9-3.1h41.1l20.6-35.6-20.6-35.6h-41.1l-20.6 35.6 20.6 35.6z"/></g><path fill="#006D5E" d="M23.2 261.7l-21.4-37.2 21.4-37.1h43l21.4 37.1-21.4 37.2z"/><path fill="#fff" d="M67.1 263.2h-44.7l-22.4-38.7 22.4-38.7h44.7l22.4 38.7-22.4 38.7zm-43-3h41.1l20.6-35.6-20.6-35.6h-41.1l-20.5 35.5 20.5 35.7z"/><g opacity=".1"><path fill="#006D5E" d="M87.6 298.9l-21.4-37.2 21.4-37.2h42.9l21.5 37.2-21.5 37.2z"/><path fill="#fff" d="M131.4 300.4h-44.7l-22.4-38.7 22.4-38.7h44.7l22.4 38.7-22.4 38.7zm-42.9-3.1h41.1l20.6-35.6-20.6-35.6h-41.1l-20.6 35.6 20.6 35.6z"/></g><g opacity=".1"><path fill="#006D5E" d="M152 336l-21.5-37.1 21.5-37.2h42.9l21.5 37.2-21.5 37.1z"/><path fill="#fff" d="M195.8 337.6h-44.7l-22.4-38.7 22.4-38.7h44.7l22.4 38.7-22.4 38.7zm-42.9-3.1h41.1l20.6-35.6-20.6-35.7h-41.1l-20.6 35.6 20.6 35.7z"/></g><path fill="#006D5E" d="M152 261.7l-21.5-37.2 21.5-37.1h42.9l21.5 37.1-21.5 37.2z"/><path fill="#fff" d="M195.8 263.2h-44.7l-22.4-38.7 22.4-38.7h44.7l22.4 38.7-22.4 38.7zm-42.9-3h41.1l20.6-35.6-20.6-35.7h-41.1l-20.6 35.6 20.6 35.7z"/><g opacity=".1"><path fill="#006D5E" d="M216.4 373.2l-21.5-37.2 21.5-37.1h42.9l21.4 37.1-21.4 37.2z"/><path fill="#fff" d="M260.2 374.7h-44.7l-22.4-38.7 22.4-38.7h44.7l22.4 38.7-22.4 38.7zm-42.9-3.1h41.1l20.6-35.6-20.6-35.6h-41.1l-20.6 35.6 20.6 35.6z"/></g><g opacity=".1"><path fill="#006D5E" d="M216.4 298.9l-21.5-37.2 21.5-37.2h42.9l21.4 37.2-21.4 37.2z"/><path fill="#fff" d="M260.2 300.4h-44.7l-22.4-38.7 22.4-38.7h44.7l22.4 38.7-22.4 38.7zm-42.9-3.1h41.1l20.6-35.6-20.6-35.6h-41.1l-20.6 35.6 20.6 35.6z"/></g><g opacity=".1"><path fill="#006D5E" d="M280.7 336l-21.4-37.1 21.4-37.2h42.9l21.5 37.2-21.5 37.1z"/><path fill="#fff" d="M324.5 337.6h-44.7l-22.4-38.7 22.4-38.7h44.7l22.4 38.7-22.4 38.7zm-42.9-3.1h41.1l20.6-35.6-20.6-35.6h-41.1l-20.6 35.6 20.6 35.6z"/></g><g opacity=".1"><path fill="#006D5E" d="M280.7 261.7l-21.4-37.2 21.4-37.1h42.9l21.5 37.1-21.5 37.2z"/><path fill="#fff" d="M324.5 263.2h-44.7l-22.4-38.7 22.4-38.7h44.7l22.4 38.7-22.4 38.7zm-42.9-3h41.1l20.6-35.6-20.6-35.6h-41.1l-20.6 35.6 20.6 35.6z"/></g><g opacity=".1"><path fill="#006D5E" d="M345.1 373.2l-21.5-37.2 21.5-37.1h42.9l21.5 37.1-21.5 37.2z"/><path fill="#fff" d="M388.9 374.7h-44.7l-22.3-38.7 22.4-38.7h44.7l22.4 38.7-22.5 38.7zm-42.9-3.1h41.1l20.6-35.6-20.6-35.6h-41.1l-20.6 35.6 20.6 35.6z"/></g><g opacity=".1"><path fill="#006D5E" d="M345.1 298.9l-21.5-37.2 21.5-37.2h42.9l21.5 37.2-21.5 37.2z"/><path fill="#fff" d="M388.9 300.4h-44.7l-22.4-38.7 22.4-38.7h44.7l22.4 38.7-22.4 38.7zm-42.9-3.1h41.1l20.6-35.6-20.6-35.6h-41.1l-20.6 35.6 20.6 35.6z"/></g><g opacity=".1"><path fill="#006D5E" d="M409.5 113l-21.5-37.1 21.5-37.2h42.9l21.4 37.2-21.4 37.1z"/><path fill="#fff" d="M453.3 114.6h-44.7l-22.4-38.7 22.4-38.7h44.7l22.4 38.7-22.4 38.7zm-42.9-3.1h41.1l20.6-35.6-20.6-35.6h-41.1l-20.6 35.6 20.6 35.6z"/></g><g opacity=".1"><path fill="#006D5E" d="M409.5 187.4l-21.5-37.2 21.5-37.2h42.9l21.4 37.2-21.4 37.2z"/><path fill="#fff" d="M453.3 188.9h-44.7l-22.4-38.7 22.4-38.7h44.7l22.4 38.7-22.4 38.7zm-42.9-3.1h41.1l20.6-35.6-20.6-35.6h-41.1l-20.6 35.6 20.6 35.6z"/></g><g opacity=".1"><path fill="#006D5E" d="M473.8 224.5l-21.4-37.1 21.4-37.2h43l21.4 37.2-21.4 37.1z"/><path fill="#fff" d="M517.6 226.1h-44.7l-22.4-38.7 22.4-38.7h44.7l22.4 38.7-22.4 38.7zm-42.9-3.1h41.1l20.6-35.6-20.6-35.6h-41.1l-20.6 35.6 20.6 35.6z"/></g><g opacity=".1"><path fill="#006D5E" d="M409.5 336l-21.5-37.1 21.5-37.2h42.9l21.4 37.2-21.4 37.1z"/><path fill="#fff" d="M453.3 337.6h-44.7l-22.4-38.7 22.4-38.7h44.7l22.4 38.7-22.4 38.7zm-42.9-3.1h41.1l20.6-35.6-20.6-35.6h-41.1l-20.6 35.6 20.6 35.6z"/></g><g opacity=".1"><path fill="#006D5E" d="M409.5 261.7l-21.5-37.2 21.5-37.1h42.9l21.4 37.1-21.4 37.2z"/><path fill="#fff" d="M453.3 263.2h-44.7l-22.4-38.7 22.4-38.7h44.7l22.4 38.7-22.4 38.7zm-42.9-3h41.1l20.6-35.6-20.6-35.6h-41.1l-20.6 35.6 20.6 35.6z"/></g><g opacity=".1"><path fill="#006D5E" d="M473.8 298.9l-21.4-37.2 21.4-37.2h43l21.4 37.2-21.4 37.2z"/><path fill="#fff" d="M517.6 300.4h-44.7l-22.4-38.7 22.4-38.7h44.7l22.4 38.7-22.4 38.7zm-42.9-3.1h41.1l20.6-35.6-20.6-35.6h-41.1l-20.6 35.6 20.6 35.6z"/></g><g fill="#fff"><path d="M18 220.4h1.3v4.3c0 1 .1 2.1 1.7 2.1s1.7-1.1 1.7-2.1v-4.3h1.3v4.7c0 1.9-1.2 2.8-3 2.8s-3-.9-3-2.8v-4.7zM25.2 222.5h1.1v.8c.4-.6 1-.9 1.7-.9 1.2 0 1.9.6 1.9 1.8v3.7h-1.2v-3.4c0-.8-.3-1.2-1-1.2-.8 0-1.3.6-1.3 1.4v3.1h-1.2v-5.3zM36 227.8h-1.1v-.7c-.3.6-1 .9-1.7.9-1.7 0-2.5-1.2-2.5-2.8 0-1.9 1.1-2.8 2.3-2.8.7 0 1.4.2 1.8.8v-2.7h1.2v7.3zm-2.7-.8c1 0 1.5-1 1.5-1.9 0-1.2-.6-1.9-1.5-1.9-1.1 0-1.5 1-1.5 1.9.1 1 .5 1.9 1.5 1.9zM37.9 225.4c0 .8.5 1.6 1.4 1.6.7 0 1.1-.3 1.3-.9h1.1c-.2 1.2-1.3 1.8-2.4 1.8-1.7 0-2.6-1.2-2.6-2.8 0-1.5 1-2.8 2.6-2.8 1.7 0 2.7 1.5 2.5 3.1h-3.9zm2.8-.7c-.1-.7-.5-1.4-1.3-1.4s-1.4.6-1.4 1.4h2.7zM42.7 222.5h1.1v1c.1-.6.8-1.2 1.6-1.2h.4v1.1l-.5-.1c-.8 0-1.4.6-1.4 1.8v2.5h-1.2v-5.1zM47.2 226.1c.1.7.6.9 1.2.9.5 0 1.2-.1 1.2-.7s-.9-.7-1.7-.9c-.9-.2-1.7-.5-1.7-1.6 0-1.2 1.3-1.5 2.2-1.5 1.1 0 2.1.4 2.2 1.6h-1.2c-.1-.6-.6-.7-1.1-.7-.3 0-1 .1-1 .5 0 .6.9.7 1.7.9.9.2 1.7.5 1.7 1.6 0 1.3-1.3 1.7-2.4 1.7-1.4 0-2.3-.6-2.4-1.9h1.3zM51 222.5h.9v-1.6h1.2v1.6h1.1v.9h-1.1v2.8c0 .5 0 .7.6.7h.5v.9l-.8.1c-1.2 0-1.4-.5-1.5-1.4v-3.1h-.9v-.9zM59.4 226.6c0 .3.1.4.3.4h.30000000000000004v.8c-.2.1-.5.1-.7.1-.5 0-.8-.2-.9-.6-.5.5-1.2.6-1.8.6-1 0-1.8-.5-1.8-1.6 0-1.3 1.1-1.5 2.1-1.7.9-.2 1.6-.1 1.6-.8 0-.6-.6-.7-1.1-.7-.7 0-1.1.3-1.2.8h-1.2c.1-1.4 1.2-1.8 2.4-1.8 1 0 2.1.4 2.1 1.5v3zm-1.2-1.5c-.4.2-.9.2-1.4.3-.5.1-1 .3-1 .9 0 .5.7.7 1.1.7.5 0 1.3-.3 1.3-1v-.9zM60.7 222.5h1.1v.8c.4-.6 1-.9 1.7-.9 1.2 0 1.9.6 1.9 1.8v3.7h-1.2v-3.4c0-.8-.3-1.2-1-1.2-.8 0-1.3.6-1.3 1.4v3.1h-1.2v-5.3zM71.4 227.8h-1.1v-.7c-.3.6-1 .9-1.7.9-1.7 0-2.5-1.2-2.5-2.8 0-1.9 1.1-2.8 2.3-2.8.7 0 1.4.2 1.8.8v-2.7h1.2v7.3zm-2.6-.8c1 0 1.5-1 1.5-1.9 0-1.2-.6-1.9-1.5-1.9-1.1 0-1.5 1-1.5 1.9 0 1 .5 1.9 1.5 1.9z"/></g><g fill="#fff"><path d="M91.9 183.3h5.3v1.1h-4v1.9h3.7v1.1h-3.7v2.2h4.1v1.1h-5.4v-7.4zM100 187.8l-1.8-2.5h1.4l1.1 1.6 1.2-1.6h1.4l-1.8 2.5 2 2.9h-1.4l-1.4-2-1.3 2h-1.4l2-2.9zM103.9 185.3h1.1v.7c.3-.6 1-.9 1.7-.9 1.7 0 2.5 1.3 2.5 2.8 0 1.4-.7 2.8-2.3 2.8-.7 0-1.4-.2-1.8-.8v2.7h-1.2v-7.3zm2.7.8c-1 0-1.5.7-1.5 1.9 0 1.1.5 1.9 1.5 1.9 1.1 0 1.5-.9 1.5-1.9-.1-1-.6-1.9-1.5-1.9zM110 183.3h1.2v7.4h-1.2v-7.4zM112 188c0-1.6 1-2.8 2.7-2.8 1.7 0 2.7 1.2 2.7 2.8 0 1.6-1 2.8-2.7 2.8-1.7 0-2.7-1.2-2.7-2.8zm4.2 0c0-.9-.5-1.9-1.5-1.9-1.1 0-1.5 1-1.5 1.9 0 .9.5 1.9 1.5 1.9 1.1 0 1.5-1 1.5-1.9zM118.2 185.3h1.1v1c.1-.6.8-1.2 1.6-1.2h.4v1.1l-.5-.1c-.8 0-1.4.6-1.4 1.8v2.5h-1.2v-5.1zM122.6 188.3c0 .8.5 1.6 1.4 1.6.7 0 1.1-.3 1.3-.9h1.1c-.2 1.2-1.3 1.8-2.4 1.8-1.7 0-2.6-1.2-2.6-2.8 0-1.5 1-2.8 2.6-2.8 1.7 0 2.7 1.5 2.5 3.1h-3.9zm2.7-.8c-.1-.7-.5-1.4-1.3-1.4s-1.4.6-1.4 1.4h2.7z"/></g><g fill="#fff"><path d="M151.3 220.4h3.3c2.1 0 2.5 1.4 2.5 2.3 0 .9-.4 2.3-2.5 2.3h-2v2.8h-1.3v-7.4zm1.3 3.5h1.9c.6 0 1.3-.3 1.3-1.2 0-1-.6-1.2-1.3-1.2h-1.9v2.4zM157.8 222.5h1.1v1c.1-.6.8-1.2 1.6-1.2h.4v1.1l-.5-.1c-.8 0-1.4.6-1.4 1.8v2.5h-1.2v-5.1zM161 225.1c0-1.6 1-2.8 2.7-2.8 1.7 0 2.7 1.2 2.7 2.8 0 1.6-1 2.8-2.7 2.8-1.7.1-2.7-1.1-2.7-2.8zm4.2 0c0-.9-.5-1.9-1.5-1.9-1.1 0-1.5 1-1.5 1.9 0 .9.5 1.9 1.5 1.9 1.1 0 1.5-.9 1.5-1.9zM166.6 222.5h.9v-1.6h1.2v1.6h1.1v.9h-1.1v2.8c0 .5 0 .7.6.7h.5v.9l-.8.1c-1.2 0-1.4-.5-1.5-1.4v-3.1h-.9v-.9zM170 225.1c0-1.6 1-2.8 2.7-2.8 1.7 0 2.7 1.2 2.7 2.8 0 1.6-1 2.8-2.7 2.8-1.7.1-2.7-1.1-2.7-2.8zm4.2 0c0-.9-.5-1.9-1.5-1.9-1.1 0-1.5 1-1.5 1.9 0 .9.5 1.9 1.5 1.9 1.1 0 1.5-.9 1.5-1.9zM175.6 222.5h.9v-1.6h1.2v1.6h1.1v.9h-1.1v2.8c0 .5 0 .7.6.7h.5v.9l-.8.1c-1.2 0-1.4-.5-1.5-1.4v-3.1h-.9v-.9zM179.1 222.5h1.3l1.4 4 1.4-4h1.2l-2.1 5.6c-.4 1-.6 1.8-1.9 1.8-.3 0-.5 0-.8-.1v-1l.6.1c.5 0 .7-.3.8-.7l.1-.4-2-5.3zM184.9 222.5h1.1v.7c.3-.6 1-.9 1.7-.9 1.7 0 2.5 1.3 2.5 2.8 0 1.4-.7 2.8-2.3 2.8-.7 0-1.4-.2-1.8-.8v2.7h-1.2v-7.3zm2.6.8c-1 0-1.5.7-1.5 1.9 0 1.1.5 1.9 1.5 1.9 1.1 0 1.5-.9 1.5-1.9 0-1-.5-1.9-1.5-1.9zM192 225.4c0 .8.5 1.6 1.4 1.6.7 0 1.1-.3 1.3-.9h1.1c-.2 1.2-1.3 1.8-2.4 1.8-1.7 0-2.6-1.2-2.6-2.8 0-1.5 1-2.8 2.6-2.8 1.7 0 2.7 1.5 2.5 3.1h-3.9zm2.7-.7c-.1-.7-.5-1.4-1.3-1.4s-1.4.6-1.4 1.4h2.7z"/></g><g fill="#fff"><path d="M218.7 183.3h5.3v1.1h-4v1.9h3.7v1.1h-3.7v2.2h4.1v1.1h-5.4v-7.4zM224.4 185.3h1.3l1.4 4.1 1.3-4.1h1.2l-1.9 5.3h-1.3l-2-5.3zM234.4 189.5c0 .3.1.4.3.4h.30000000000000004v.8c-.2.1-.5.1-.7.1-.5 0-.8-.2-.9-.6-.5.5-1.2.6-1.8.6-1 0-1.8-.5-1.8-1.6 0-1.3 1.1-1.5 2.1-1.7.9-.2 1.6-.1 1.6-.8 0-.6-.6-.7-1.1-.7-.7 0-1.1.3-1.2.8h-1.2c.1-1.4 1.2-1.8 2.4-1.8 1 0 2.1.4 2.1 1.5v3zm-1.2-1.5c-.4.2-.9.2-1.4.3-.5.1-1 .3-1 .9 0 .5.7.7 1.1.7.5 0 1.3-.3 1.3-1v-.9zM235.7 183.3h1.2v7.4h-1.2v-7.4zM242.6 190.6h-1.2v-.7c-.3.5-.9.9-1.5.9-1.4 0-2-.7-2-2.1v-3.4h1.2v3.3c0 .9.4 1.3 1 1.3 1 0 1.3-.6 1.3-1.5v-3.1h1.2v5.3zM248.1 189.5c0 .3.1.4.3.4h.30000000000000004v.8c-.2.1-.5.1-.7.1-.5 0-.8-.2-.9-.6-.5.5-1.2.6-1.8.6-1 0-1.8-.5-1.8-1.6 0-1.3 1.1-1.5 2.1-1.7.9-.2 1.6-.1 1.6-.8 0-.6-.6-.7-1.1-.7-.7 0-1.1.3-1.2.8h-1.2c.1-1.4 1.2-1.8 2.4-1.8 1 0 2.1.4 2.1 1.5v3zm-1.2-1.5c-.4.2-.9.2-1.4.3-.5.1-1 .3-1 .9 0 .5.7.7 1.1.7.5 0 1.3-.3 1.3-1v-.9zM248.8 185.3h.9v-1.6h1.2v1.6h1.1v.9h-1.1v2.8c0 .5 0 .7.6.7h.5v.9l-.8.1c-1.2 0-1.4-.5-1.5-1.4v-3.1h-.9v-.9zM253.4 188.3c0 .8.5 1.6 1.4 1.6.7 0 1.1-.3 1.3-.9h1.1c-.2 1.2-1.3 1.8-2.4 1.8-1.7 0-2.6-1.2-2.6-2.8 0-1.5 1-2.8 2.6-2.8 1.7 0 2.7 1.5 2.5 3.1h-3.9zm2.7-.8c-.1-.7-.5-1.4-1.3-1.4s-1.4.6-1.4 1.4h2.7z"/></g><style><![CDATA[
    svg {
      transform: translateX(320px);
    }
  ]]></style></svg>
