<svg xmlns="http://www.w3.org/2000/svg" viewBox="49.2 0 61.6 90" enable-background="new 49.2 0 61.6 90"><path stroke="#003c32" stroke-width=".75" stroke-miterlimit="10" fill="none" d="M80 90v-22.5"/><path stroke="#3D3D3D" stroke-width=".75" stroke-miterlimit="10" fill="none" d="M80 67.5h-21.7"/><path stroke="#003c32" stroke-width=".75" stroke-miterlimit="10" fill="none" d="M101.8 67.5h-21.8"/><circle fill="#fff" stroke="#003c32" stroke-width=".75" stroke-miterlimit="10" cx="80" cy="30.9" r="13.7"/><path stroke="#003c32" stroke-width=".75" stroke-miterlimit="10" fill="none" d="M89.7 21.1l21.1-21.1M49.2 61.6l21.1-21.1M49.2 0l21.1 21.1"/><text transform="matrix(.707 .707 -.707 .707 53.086 2.113)" fill="#003C32" font-family="'MyriadPro-Regular'" font-size="4.141">Thinks/Feels</text><text transform="matrix(.707 -.707 .707 .707 57.203 52.689)" fill="#003C32" font-family="'MyriadPro-Regular'" font-size="4.141">Hears</text><path stroke="#003c32" stroke-width=".75" stroke-miterlimit="10" fill="none" d="M89.7 40.5l21.1 21.1"/><text transform="matrix(.707 .707 -.707 .707 91.414 46.999)" fill="#003C32" font-family="'MyriadPro-Regular'" font-size="4.141">Says/Does</text><text transform="matrix(.707 -.707 .707 .707 99.927 15.812)" fill="#003C32" font-family="'MyriadPro-Regular'" font-size="4.141">Sees</text><text transform="translate(65.643 71.663)" fill="#003C32" font-family="'MyriadPro-Regular'" font-size="4.141">Pain</text><text transform="translate(86.912 71.663)" fill="#003C32" font-family="'MyriadPro-Regular'" font-size="4.141">Gain</text><g fill="#003C32"><path d="M80 33.3c2.5 0 4.6-2.1 4.6-4.6 0-2.5-2.1-4.6-4.6-4.6s-4.6 2.1-4.6 4.6 2.1 4.6 4.6 4.6zm0-8.7c2.3 0 4.1 1.8 4.1 4.1s-1.8 4.1-4.1 4.1-4.1-1.8-4.1-4.1 1.8-4.1 4.1-4.1zM83.7 34.2h-7.3c-1 0-1.8.8-1.8 1.8v1.8h11v-1.8c-.1-1-.9-1.8-1.9-1.8z"/></g></svg>